<?xml version="1.0" encoding="UTF-8"?>
<svg xmlns="http://www.w3.org/2000/svg" xmlns:xlink="http://www.w3.org/1999/xlink" width="154px" height="23px" viewBox="0 0 154 23" version="1.1">
<g id="surface1">
<path style=" stroke:none;fill-rule:nonzero;fill:rgb(100%,100%,100%);fill-opacity:1;" d="M 79.703125 2.792969 L 79.375 1.808594 L 79.703125 0.0820312 L 79.539062 0 L 75.035156 3.777344 L 75.035156 3.859375 Z M 79.703125 2.792969 "/>
<path style=" stroke:none;fill-rule:nonzero;fill:rgb(100%,100%,100%);fill-opacity:1;" d="M 10.894531 20.699219 C 10.488281 21.117188 10.003906 21.449219 9.472656 21.671875 C 8.9375 21.898438 8.363281 22.015625 7.78125 22.015625 C 4.175781 22.015625 3.277344 18.8125 3.277344 15.03125 C 3.277344 11.253906 4.097656 8.050781 7.699219 8.050781 C 8.257812 8.035156 8.8125 8.148438 9.320312 8.375 C 9.832031 8.601562 10.285156 8.941406 10.648438 9.363281 L 12.695312 12.484375 L 12.859375 12.484375 L 12.859375 7.804688 L 12.695312 7.804688 L 10.8125 8.789062 C 9.941406 8.050781 8.839844 7.640625 7.699219 7.640625 C 4.175781 7.640625 0 10.351562 0 15.113281 C 0 19.878906 4.097656 22.589844 7.78125 22.589844 C 8.984375 22.582031 10.144531 22.144531 11.058594 21.355469 L 12.859375 22.425781 L 13.023438 22.425781 L 13.023438 17.496094 L 12.859375 17.496094 Z M 10.894531 20.699219 "/>
<path style=" stroke:none;fill-rule:nonzero;fill:rgb(100%,100%,100%);fill-opacity:1;" d="M 24.328125 7.558594 C 20.886719 7.558594 16.792969 10.515625 16.792969 15.03125 C 16.792969 19.550781 20.886719 22.507812 24.328125 22.507812 C 27.769531 22.507812 31.863281 19.550781 31.863281 15.03125 C 31.863281 10.515625 27.851562 7.558594 24.328125 7.558594 Z M 24.328125 22.015625 C 20.886719 22.015625 19.988281 18.976562 19.988281 15.03125 C 19.988281 11.089844 20.886719 8.050781 24.328125 8.050781 C 27.769531 8.050781 28.671875 11.089844 28.671875 15.03125 C 28.671875 18.976562 27.851562 22.015625 24.328125 22.015625 Z M 24.328125 22.015625 "/>
<path style=" stroke:none;fill-rule:nonzero;fill:rgb(100%,100%,100%);fill-opacity:1;" d="M 44.890625 8.214844 L 46.691406 8.214844 L 46.691406 17.25 L 46.609375 17.25 L 40.21875 7.804688 L 34.484375 7.804688 L 34.484375 8.214844 L 36.207031 8.214844 L 36.207031 21.851562 L 34.484375 21.851562 L 34.484375 22.261719 L 38.582031 22.261719 L 38.582031 21.851562 L 36.78125 21.851562 L 36.78125 8.214844 L 47.101562 22.507812 L 47.265625 22.507812 L 47.265625 8.214844 L 48.984375 8.214844 L 48.984375 7.804688 L 44.890625 7.804688 Z M 44.890625 8.214844 "/>
<path style=" stroke:none;fill-rule:nonzero;fill:rgb(100%,100%,100%);fill-opacity:1;" d="M 58.570312 7.804688 L 52.097656 7.804688 L 52.097656 8.214844 L 53.980469 8.214844 L 53.980469 21.851562 L 52.097656 21.851562 L 52.097656 22.261719 L 58.570312 22.261719 C 61.761719 22.261719 67.089844 20.863281 67.089844 14.949219 C 67.089844 9.035156 61.761719 7.804688 58.570312 7.804688 Z M 58.40625 21.851562 L 56.847656 21.851562 L 56.847656 8.214844 L 58.40625 8.214844 C 62.171875 8.214844 63.894531 10.925781 63.894531 15.03125 C 63.894531 19.140625 62.171875 21.851562 58.40625 21.851562 Z M 58.40625 21.851562 "/>
<path style=" stroke:none;fill-rule:nonzero;fill:rgb(100%,100%,100%);fill-opacity:1;" d="M 79.949219 21.851562 L 74.542969 21.851562 L 74.542969 14.703125 L 77.246094 14.703125 C 78.015625 15.527344 78.652344 16.472656 79.128906 17.496094 L 79.292969 17.496094 L 79.292969 11.5 L 79.128906 11.5 C 78.652344 12.523438 78.015625 13.46875 77.246094 14.292969 L 74.542969 14.292969 L 74.542969 8.214844 L 79.375 8.214844 C 80.765625 9.117188 81.996094 11.664062 81.996094 11.664062 L 82.160156 11.664062 L 82.160156 7.804688 L 69.789062 7.804688 L 69.789062 8.214844 L 71.675781 8.214844 L 71.675781 21.851562 L 69.789062 21.851562 L 69.789062 22.261719 L 82.570312 22.261719 L 82.570312 17.414062 L 82.40625 17.414062 C 81.8125 19.007812 80.984375 20.503906 79.949219 21.851562 Z M 79.949219 21.851562 "/>
<path style=" stroke:none;fill-rule:nonzero;fill:rgb(100%,100%,100%);fill-opacity:1;" d="M 102.066406 8.214844 L 103.867188 8.214844 L 103.867188 17.25 L 103.785156 17.25 L 97.398438 7.804688 L 91.582031 7.804688 L 91.582031 8.214844 L 93.382812 8.214844 L 93.382812 21.851562 L 91.582031 21.851562 L 91.582031 22.261719 L 95.675781 22.261719 L 95.675781 21.851562 L 93.957031 21.851562 L 93.957031 8.214844 L 104.277344 22.507812 L 104.359375 22.507812 L 104.359375 8.214844 L 106.164062 8.214844 L 106.164062 7.804688 L 102.066406 7.804688 Z M 102.066406 8.214844 "/>
<path style=" stroke:none;fill-rule:nonzero;fill:rgb(100%,100%,100%);fill-opacity:1;" d="M 115.417969 7.3125 L 115.253906 7.3125 L 109.109375 21.769531 L 107.390625 21.769531 L 107.390625 22.179688 L 111.242188 22.179688 L 111.242188 21.769531 L 109.601562 21.769531 L 111.8125 16.59375 L 116.484375 16.59375 L 118.859375 21.769531 L 116.972656 21.769531 L 116.972656 22.179688 L 123.691406 22.179688 L 123.691406 21.769531 L 121.972656 21.769531 Z M 112.058594 16.265625 L 114.1875 11.253906 L 116.402344 16.265625 Z M 112.058594 16.265625 "/>
<path style=" stroke:none;fill-rule:nonzero;fill:rgb(100%,100%,100%);fill-opacity:1;" d="M 133.847656 13.800781 L 130.980469 12.8125 C 129.589844 12.320312 128.441406 11.664062 128.441406 10.269531 C 128.441406 8.871094 129.671875 7.96875 131.554688 7.96875 C 132.023438 7.929688 132.496094 7.996094 132.9375 8.167969 C 133.378906 8.339844 133.773438 8.605469 134.09375 8.953125 L 136.140625 12.074219 L 136.304688 12.074219 L 136.304688 7.476562 L 136.140625 7.476562 L 134.257812 8.460938 C 133.507812 7.808594 132.546875 7.457031 131.554688 7.476562 C 130.972656 7.441406 130.386719 7.527344 129.835938 7.726562 C 129.285156 7.925781 128.78125 8.234375 128.355469 8.632812 C 127.925781 9.03125 127.582031 9.511719 127.34375 10.046875 C 127.105469 10.582031 126.976562 11.160156 126.96875 11.746094 C 126.96875 13.800781 128.441406 14.867188 130 15.441406 L 132.863281 16.511719 C 134.421875 17.085938 135.40625 17.742188 135.40625 19.222656 C 135.40625 20.699219 134.421875 21.933594 131.964844 21.933594 C 130.769531 21.875 129.625 21.441406 128.6875 20.699219 L 126.558594 17.167969 L 126.3125 17.167969 L 126.3125 22.179688 L 126.558594 22.179688 L 128.359375 21.191406 C 129.351562 21.949219 130.554688 22.378906 131.800781 22.425781 C 134.914062 22.425781 136.960938 20.207031 136.960938 17.742188 C 136.960938 15.277344 135.648438 14.375 133.847656 13.800781 Z M 133.847656 13.800781 "/>
<path style=" stroke:none;fill-rule:nonzero;fill:rgb(100%,100%,100%);fill-opacity:1;" d="M 140.320312 7.804688 L 140.320312 12.320312 L 140.484375 12.320312 C 141.183594 10.867188 142.035156 9.488281 143.023438 8.214844 L 145.5625 8.214844 L 145.5625 21.851562 L 143.269531 21.851562 L 143.269531 22.261719 L 150.722656 22.261719 L 150.722656 21.851562 L 148.429688 21.851562 L 148.429688 8.214844 L 150.96875 8.214844 C 151.957031 9.488281 152.808594 10.867188 153.507812 12.320312 L 153.671875 12.320312 L 153.671875 7.886719 L 140.320312 7.886719 Z M 140.320312 7.804688 "/>
</g>
</svg>
